<svg aria-hidden="true" style="position: absolute; width: 0; height: 0; overflow: hidden;" version="1.1" xmlns="http://www.w3.org/2000/svg" xmlns:xlink="http://www.w3.org/1999/xlink">
<defs>
<symbol id="bag" viewBox="0 0 32 32">
<path d="M29.246 26.711l-1.582-15.355c-0.067-0.632-0.597-1.12-1.241-1.12h-20.805c-0.643 0-1.172 0.486-1.24 1.111l-0 0.006-1.625 15.364c-0.014 0.139-0.022 0.301-0.022 0.464 0 1.247 0.474 2.383 1.253 3.238l-0.003-0.004c0.88 0.972 2.145 1.581 3.553 1.586h16.979c1.339 0 2.622-0.569 3.518-1.557 0.771-0.855 1.243-1.993 1.243-3.241 0-0.173-0.009-0.343-0.027-0.511l0.002 0.021zM26.18 28.766c-0.409 0.454-1 0.738-1.656 0.738-0.005 0-0.011-0-0.016-0h-16.977c-0.64 0-1.26-0.281-1.701-0.766-0.374-0.409-0.604-0.955-0.604-1.555 0-0.075 0.004-0.148 0.010-0.221l-0.001 0.009 1.506-14.238h18.556l1.465 14.229c0.068 0.676-0.142 1.316-0.583 1.804z"></path>
<path d="M16.228 0c-3.951 0.004-7.153 3.206-7.157 7.157v4.328h2.496v-4.327c0.002-2.574 2.088-4.659 4.661-4.661h0c2.572 0.004 4.657 2.089 4.66 4.661v4.327h2.498v-4.327c-0.004-3.951-3.206-7.153-7.157-7.157h-0z"></path>
</symbol>
<symbol id="heart" viewBox="0 0 36 32">
<path d="M32.61 3.829c-3.867-3.68-10.16-3.68-14.027 0l-0.805 0.761-0.804-0.764c-3.868-3.68-10.16-3.678-14.028 0-1.9 1.81-2.946 4.204-2.946 6.748 0 2.546 1.045 4.942 2.946 6.748l13.973 13.266c0.223 0.213 0.525 0.344 0.859 0.344s0.636-0.131 0.859-0.345l-0 0 13.973-13.266c1.899-1.808 2.946-4.203 2.946-6.748 0-2.542-1.047-4.939-2.946-6.745zM30.891 15.513l-13.113 12.452-13.113-12.452c-1.399-1.33-2.169-3.084-2.169-4.939 0-1.852 0.77-3.607 2.169-4.939 1.368-1.288 3.216-2.080 5.249-2.080 0.016 0 0.032 0 0.048 0h-0.002c1.918 0 3.836 0.693 5.296 2.084l1.662 1.58c0.482 0.457 1.237 0.457 1.719 0l1.664-1.582c2.921-2.777 7.671-2.777 10.59 0 1.399 1.332 2.169 3.086 2.169 4.939 0 1.854-0.77 3.609-2.169 4.939z"></path>
</symbol>
<symbol id="menu" viewBox="0 0 27 32">
<path d="M24.326 15.635v15.635h2.554v-31.27h-2.554v15.635zM12.152 19.096l0.012 12.152h2.554l0.010-12.152 0.012-12.152h-2.598l0.012 12.152zM0 22.579v8.691h2.554v-17.382h-2.554v8.691z"></path>
</symbol>
<symbol id="logo" viewBox="0 0 132 32">
<path fill="#000" fill-rule="evenodd" d="M84.48 7.498c-1.974.896-2.86 2.253-2.86 4.384 0 1.477.303 2.233 1.245 3.108.802.744 1.515 1.089 3.815 1.844 2.537.832 3.52 1.768 3.52 3.35 0 1.328-.543 2.124-1.853 2.719-1.676.761-3.42.449-4.792-.857l-.815-.776-.763.522c-.879.603-.812.943.361 1.826 1.482 1.116 4.179 1.56 6.151 1.012 2.05-.569 3.691-2.643 3.691-4.664 0-2.269-1.325-3.729-4.265-4.698-3.51-1.158-4.434-1.91-4.41-3.591.02-1.365.67-2.284 1.964-2.778 1.445-.552 2.969-.351 4.075.538.92.739 1.307.719 1.99-.104.273-.328.215-.451-.508-1.075-.448-.388-1.2-.82-1.671-.962-1.376-.412-3.735-.314-4.875.202m-69.52.152c0 .094 1.411 3.88 3.136 8.415l3.137 8.245h1.921l2.782-7.15c1.531-3.932 3-7.719 3.266-8.415l.483-1.265h-1.893l-2.452 6.325c-1.348 3.479-2.562 6.647-2.697 7.04-.135.393-.32.715-.41.715-.09 0-1.343-3.168-2.784-7.04L16.83 7.48h-.935c-.514 0-.935.077-.935.17m24.42.6v.77h9.02v5.72h-8.36v1.76h8.36v6.38h-9.24v1.54h11V7.48H39.38v.77m21.34 7.682v8.488h1.76V16.5h2.849l2.339 3.96 2.34 3.96h2.203l-.379-.578c-.209-.318-1.313-2.125-2.456-4.015L67.3 16.39l.725-.126a4.571 4.571 0 0 0 3.266-2.404c.157-.303.293-1.144.301-1.87.02-1.76-.562-2.869-1.964-3.74-1.061-.66-1.064-.66-4.985-.733l-3.923-.073v8.488m46.983-7.75c-.167.4-1.512 3.5-2.989 6.888-2.852 6.546-3.954 9.133-3.954 9.282 0 .051.453.062 1.007.025l1.008-.067.89-2.145.89-2.145h8.696l.94 2.2.939 2.2h2.071l-2.473-5.665a15884.6 15884.6 0 0 1-3.67-8.415l-1.196-2.75-.927-.068c-.866-.063-.947-.02-1.232.66m-40.144 1.09c.461.138 1.116.54 1.455.894.523.545.616.827.616 1.856 0 1.088-.073 1.279-.703 1.842-.937.837-1.97 1.093-4.412 1.095l-2.035.001V9.02h2.119c1.166 0 2.498.113 2.96.252m43.446 5.293c.778 1.9 1.415 3.558 1.415 3.685 0 .15-1.216.23-3.52.23-2.145 0-3.52-.084-3.52-.215 0-.223 2.958-7.492 3.351-8.236.257-.485.047-.904 2.274 4.536"/>
</symbol>
<symbol id="right" viewBox="0 0 32 32">
<path d="M25.199 11.201l-0.263 0.268 2.038 2.039c1.122 1.122 2.039 2.057 2.039 2.079s-5.988 0.039-13.307 0.039h-13.306v0.8h26.639l-4.134 4.136 0.59 0.582 2.532-2.532c1.393-1.393 2.533-2.557 2.533-2.586 0-0.054-5.015-5.093-5.069-5.093-0.016 0-0.147 0.12-0.292 0.267z"></path>
</symbol>
</defs>
</svg>
